<mxfile host="app.diagrams.net" modified="2022-06-25T10:46:30.335Z" agent="5.0 (Macintosh; Intel Mac OS X 10_15_7) AppleWebKit/537.36 (KHTML, like Gecko) Chrome/102.0.0.0 Safari/537.36" etag="t8pE9uckXmmUnUCVRPRP" version="20.0.3" type="github">
  <diagram id="PIHd1jKtsE-SJ0WWJgK2" name="Page-1">
    <mxGraphModel dx="1082" dy="703" grid="0" gridSize="10" guides="1" tooltips="1" connect="1" arrows="1" fold="1" page="1" pageScale="1" pageWidth="827" pageHeight="1169" math="0" shadow="0">
      <root>
        <mxCell id="0" />
        <mxCell id="1" parent="0" />
        <mxCell id="fOEZqPEHH3j1hL_TJB7A-3" value="" style="edgeStyle=orthogonalEdgeStyle;rounded=0;orthogonalLoop=1;jettySize=auto;html=1;" edge="1" parent="1" source="fOEZqPEHH3j1hL_TJB7A-1" target="fOEZqPEHH3j1hL_TJB7A-2">
          <mxGeometry relative="1" as="geometry" />
        </mxCell>
        <mxCell id="fOEZqPEHH3j1hL_TJB7A-1" value="CollapseCodegenStages&lt;br&gt;.apply" style="rounded=1;whiteSpace=wrap;html=1;fillColor=#d5e8d4;strokeColor=#82b366;" vertex="1" parent="1">
          <mxGeometry x="227" y="126" width="138" height="58" as="geometry" />
        </mxCell>
        <mxCell id="fOEZqPEHH3j1hL_TJB7A-5" value="" style="edgeStyle=orthogonalEdgeStyle;rounded=0;orthogonalLoop=1;jettySize=auto;html=1;" edge="1" parent="1" source="fOEZqPEHH3j1hL_TJB7A-2" target="fOEZqPEHH3j1hL_TJB7A-4">
          <mxGeometry relative="1" as="geometry" />
        </mxCell>
        <mxCell id="fOEZqPEHH3j1hL_TJB7A-6" value="当前节点支持" style="edgeLabel;html=1;align=center;verticalAlign=middle;resizable=0;points=[];fontColor=#990000;" vertex="1" connectable="0" parent="fOEZqPEHH3j1hL_TJB7A-5">
          <mxGeometry x="-0.225" y="-2" relative="1" as="geometry">
            <mxPoint as="offset" />
          </mxGeometry>
        </mxCell>
        <mxCell id="fOEZqPEHH3j1hL_TJB7A-2" value="insertWholeStageCodegen" style="rounded=1;whiteSpace=wrap;html=1;fillColor=#dae8fc;strokeColor=#6c8ebf;" vertex="1" parent="1">
          <mxGeometry x="410" y="126" width="152" height="58" as="geometry" />
        </mxCell>
        <mxCell id="fOEZqPEHH3j1hL_TJB7A-8" value="" style="edgeStyle=orthogonalEdgeStyle;rounded=0;orthogonalLoop=1;jettySize=auto;html=1;curved=1;exitX=1;exitY=0.5;exitDx=0;exitDy=0;entryX=0;entryY=0.5;entryDx=0;entryDy=0;" edge="1" parent="1" source="fOEZqPEHH3j1hL_TJB7A-4" target="fOEZqPEHH3j1hL_TJB7A-7">
          <mxGeometry relative="1" as="geometry">
            <Array as="points">
              <mxPoint x="586" y="293" />
              <mxPoint x="586" y="225" />
              <mxPoint x="617" y="225" />
            </Array>
          </mxGeometry>
        </mxCell>
        <mxCell id="fOEZqPEHH3j1hL_TJB7A-10" value="" style="edgeStyle=orthogonalEdgeStyle;curved=1;rounded=0;orthogonalLoop=1;jettySize=auto;html=1;entryX=0;entryY=0.5;entryDx=0;entryDy=0;" edge="1" parent="1" source="fOEZqPEHH3j1hL_TJB7A-4" target="fOEZqPEHH3j1hL_TJB7A-9">
          <mxGeometry relative="1" as="geometry" />
        </mxCell>
        <mxCell id="fOEZqPEHH3j1hL_TJB7A-4" value="WholeStageCodegenExec" style="rounded=1;whiteSpace=wrap;html=1;fillColor=#f5f5f5;strokeColor=#666666;fontColor=#333333;" vertex="1" parent="1">
          <mxGeometry x="410" y="264" width="152" height="58" as="geometry" />
        </mxCell>
        <mxCell id="fOEZqPEHH3j1hL_TJB7A-17" value="" style="edgeStyle=orthogonalEdgeStyle;curved=1;rounded=0;orthogonalLoop=1;jettySize=auto;html=1;fontColor=#990000;entryX=0.529;entryY=0.015;entryDx=0;entryDy=0;exitX=1;exitY=0.5;exitDx=0;exitDy=0;entryPerimeter=0;" edge="1" parent="1" source="fOEZqPEHH3j1hL_TJB7A-7" target="fOEZqPEHH3j1hL_TJB7A-7">
          <mxGeometry relative="1" as="geometry">
            <mxPoint x="886" y="225" as="targetPoint" />
            <Array as="points">
              <mxPoint x="847" y="225" />
              <mxPoint x="847" y="141" />
              <mxPoint x="701" y="141" />
              <mxPoint x="701" y="197" />
            </Array>
          </mxGeometry>
        </mxCell>
        <mxCell id="fOEZqPEHH3j1hL_TJB7A-20" style="rounded=0;orthogonalLoop=1;jettySize=auto;html=1;fontColor=#990000;entryX=0;entryY=0.5;entryDx=0;entryDy=0;edgeStyle=orthogonalEdgeStyle;" edge="1" parent="1" source="fOEZqPEHH3j1hL_TJB7A-7" target="fOEZqPEHH3j1hL_TJB7A-21">
          <mxGeometry relative="1" as="geometry">
            <mxPoint x="883.6521739130437" y="224.9999999999999" as="targetPoint" />
          </mxGeometry>
        </mxCell>
        <mxCell id="fOEZqPEHH3j1hL_TJB7A-24" value="不支持" style="edgeLabel;html=1;align=center;verticalAlign=middle;resizable=0;points=[];fontColor=#990000;" vertex="1" connectable="0" parent="fOEZqPEHH3j1hL_TJB7A-20">
          <mxGeometry x="0.2397" y="-2" relative="1" as="geometry">
            <mxPoint as="offset" />
          </mxGeometry>
        </mxCell>
        <mxCell id="fOEZqPEHH3j1hL_TJB7A-7" value="insertInputAdapter(plan)" style="rounded=1;whiteSpace=wrap;html=1;" vertex="1" parent="1">
          <mxGeometry x="620" y="196" width="152" height="58" as="geometry" />
        </mxCell>
        <mxCell id="fOEZqPEHH3j1hL_TJB7A-9" value="codegenStageCounter" style="rounded=1;whiteSpace=wrap;html=1;" vertex="1" parent="1">
          <mxGeometry x="613" y="328" width="132" height="43" as="geometry" />
        </mxCell>
        <mxCell id="fOEZqPEHH3j1hL_TJB7A-11" value="参数" style="text;html=1;strokeColor=none;fillColor=none;align=center;verticalAlign=middle;whiteSpace=wrap;rounded=0;fontColor=#990000;fontStyle=0" vertex="1" parent="1">
          <mxGeometry x="566" y="278" width="60" height="30" as="geometry" />
        </mxCell>
        <mxCell id="fOEZqPEHH3j1hL_TJB7A-12" style="edgeStyle=orthogonalEdgeStyle;curved=1;rounded=0;orthogonalLoop=1;jettySize=auto;html=1;fontColor=#990000;entryX=0.421;entryY=-0.069;entryDx=0;entryDy=0;entryPerimeter=0;exitX=1;exitY=0.5;exitDx=0;exitDy=0;" edge="1" parent="1" source="fOEZqPEHH3j1hL_TJB7A-2" target="fOEZqPEHH3j1hL_TJB7A-2">
          <mxGeometry relative="1" as="geometry">
            <Array as="points">
              <mxPoint x="644" y="155" />
              <mxPoint x="644" y="66" />
              <mxPoint x="474" y="66" />
            </Array>
          </mxGeometry>
        </mxCell>
        <mxCell id="fOEZqPEHH3j1hL_TJB7A-13" value="不支持：&lt;br&gt;递归遍历子节点" style="text;html=1;strokeColor=none;fillColor=default;align=center;verticalAlign=middle;whiteSpace=wrap;rounded=0;fontColor=#990000;fontStyle=0" vertex="1" parent="1">
          <mxGeometry x="593" y="71" width="88" height="30" as="geometry" />
        </mxCell>
        <mxCell id="fOEZqPEHH3j1hL_TJB7A-18" value="支持：&lt;br&gt;children.map(insertInputAdapter)&lt;br&gt;递归遍历子节点" style="text;html=1;strokeColor=none;fillColor=default;align=center;verticalAlign=middle;whiteSpace=wrap;rounded=0;fontColor=#990000;fontStyle=0" vertex="1" parent="1">
          <mxGeometry x="765" y="121" width="197" height="51.5" as="geometry" />
        </mxCell>
        <mxCell id="fOEZqPEHH3j1hL_TJB7A-21" value="InputAdapter(insertWholeStageCodegen(p))" style="rounded=1;whiteSpace=wrap;html=1;" vertex="1" parent="1">
          <mxGeometry x="890" y="199" width="242" height="55" as="geometry" />
        </mxCell>
        <mxCell id="fOEZqPEHH3j1hL_TJB7A-25" value="用InputAdapter包装" style="text;html=1;strokeColor=none;fillColor=none;align=center;verticalAlign=middle;whiteSpace=wrap;rounded=0;fontColor=#990000;fontStyle=0" vertex="1" parent="1">
          <mxGeometry x="940" y="255" width="110" height="30" as="geometry" />
        </mxCell>
      </root>
    </mxGraphModel>
  </diagram>
</mxfile>
